<svg width="414" height="104" viewBox="0 0 414 104" fill="none" xmlns="http://www.w3.org/2000/svg">
<path d="M0 23C0 10.2975 10.2975 0 23 0H94C106.703 0 117 10.2975 117 23V69C117 81.7025 106.703 92 94 92H23C10.2975 92 0 81.7025 0 69V23Z" fill="#0D0909"/>
<path d="M105.536 49.5355C107.488 47.5829 107.488 44.4171 105.536 42.4645L73.7157 10.6447C71.7631 8.69204 68.5973 8.69204 66.6447 10.6447C64.692 12.5973 64.692 15.7631 66.6447 17.7157L94.9289 46L66.6447 74.2843C64.692 76.2369 64.692 79.4027 66.6447 81.3553C68.5973 83.308 71.7631 83.308 73.7157 81.3553L105.536 49.5355ZM101 51H102V41H101V51Z" fill="#FFFCFC"/>
<path d="M150.016 47.004H155.344V57.228C153.976 58.26 152.392 59.052 150.592 59.604C148.792 60.156 146.98 60.432 145.156 60.432C142.54 60.432 140.188 59.88 138.1 58.776C136.012 57.648 134.368 56.1 133.168 54.132C131.992 52.14 131.404 49.896 131.404 47.4C131.404 44.904 131.992 42.672 133.168 40.704C134.368 38.712 136.024 37.164 138.136 36.06C140.248 34.932 142.624 34.368 145.264 34.368C147.472 34.368 149.476 34.74 151.276 35.484C153.076 36.228 154.588 37.308 155.812 38.724L152.068 42.18C150.268 40.284 148.096 39.336 145.552 39.336C143.944 39.336 142.516 39.672 141.268 40.344C140.02 41.016 139.048 41.964 138.352 43.188C137.656 44.412 137.308 45.816 137.308 47.4C137.308 48.96 137.656 50.352 138.352 51.576C139.048 52.8 140.008 53.76 141.232 54.456C142.48 55.128 143.896 55.464 145.48 55.464C147.16 55.464 148.672 55.104 150.016 54.384V47.004ZM169.581 60.288C167.541 60.288 165.705 59.868 164.073 59.028C162.465 58.164 161.205 56.976 160.293 55.464C159.381 53.952 158.925 52.236 158.925 50.316C158.925 48.396 159.381 46.68 160.293 45.168C161.205 43.656 162.465 42.48 164.073 41.64C165.705 40.776 167.541 40.344 169.581 40.344C171.621 40.344 173.445 40.776 175.053 41.64C176.661 42.48 177.921 43.656 178.833 45.168C179.745 46.68 180.201 48.396 180.201 50.316C180.201 52.236 179.745 53.952 178.833 55.464C177.921 56.976 176.661 58.164 175.053 59.028C173.445 59.868 171.621 60.288 169.581 60.288ZM169.581 55.68C171.021 55.68 172.197 55.2 173.109 54.24C174.045 53.256 174.513 51.948 174.513 50.316C174.513 48.684 174.045 47.388 173.109 46.428C172.197 45.444 171.021 44.952 169.581 44.952C168.141 44.952 166.953 45.444 166.017 46.428C165.081 47.388 164.613 48.684 164.613 50.316C164.613 51.948 165.081 53.256 166.017 54.24C166.953 55.2 168.141 55.68 169.581 55.68ZM194.251 49.848H190.219V60H184.423V34.8H190.219V44.988H194.395L201.019 34.8H207.175L198.931 46.968L207.427 60H200.803L194.251 49.848ZM224.98 49.884C227.26 50.652 228.4 52.188 228.4 54.492C228.4 56.244 227.74 57.6 226.42 58.56C225.1 59.52 223.132 60 220.516 60H210.184V40.632H220.084C222.508 40.632 224.404 41.076 225.772 41.964C227.14 42.828 227.824 44.052 227.824 45.636C227.824 46.596 227.572 47.448 227.068 48.192C226.588 48.912 225.892 49.476 224.98 49.884ZM215.332 48.588H219.58C221.548 48.588 222.532 47.892 222.532 46.5C222.532 45.132 221.548 44.448 219.58 44.448H215.332V48.588ZM220.048 56.184C222.112 56.184 223.144 55.476 223.144 54.06C223.144 53.316 222.904 52.776 222.424 52.44C221.944 52.08 221.188 51.9 220.156 51.9H215.332V56.184H220.048ZM251.407 50.388C251.407 50.46 251.371 50.964 251.299 51.9H236.647C236.911 53.1 237.535 54.048 238.519 54.744C239.503 55.44 240.727 55.788 242.191 55.788C243.199 55.788 244.087 55.644 244.855 55.356C245.647 55.044 246.379 54.564 247.051 53.916L250.039 57.156C248.215 59.244 245.551 60.288 242.047 60.288C239.863 60.288 237.931 59.868 236.251 59.028C234.571 58.164 233.275 56.976 232.363 55.464C231.451 53.952 230.995 52.236 230.995 50.316C230.995 48.42 231.439 46.716 232.327 45.204C233.239 43.668 234.475 42.48 236.035 41.64C237.619 40.776 239.383 40.344 241.327 40.344C243.223 40.344 244.939 40.752 246.475 41.568C248.011 42.384 249.211 43.56 250.075 45.096C250.963 46.608 251.407 48.372 251.407 50.388ZM241.363 44.592C240.091 44.592 239.023 44.952 238.159 45.672C237.295 46.392 236.767 47.376 236.575 48.624H246.115C245.923 47.4 245.395 46.428 244.531 45.708C243.667 44.964 242.611 44.592 241.363 44.592ZM264.928 60.288C262.864 60.288 261.004 59.868 259.348 59.028C257.716 58.164 256.432 56.976 255.496 55.464C254.584 53.952 254.128 52.236 254.128 50.316C254.128 48.396 254.584 46.68 255.496 45.168C256.432 43.656 257.716 42.48 259.348 41.64C261.004 40.776 262.864 40.344 264.928 40.344C266.968 40.344 268.744 40.776 270.256 41.64C271.792 42.48 272.908 43.692 273.604 45.276L269.248 47.616C268.24 45.84 266.788 44.952 264.892 44.952C263.428 44.952 262.216 45.432 261.256 46.392C260.296 47.352 259.816 48.66 259.816 50.316C259.816 51.972 260.296 53.28 261.256 54.24C262.216 55.2 263.428 55.68 264.892 55.68C266.812 55.68 268.264 54.792 269.248 53.016L273.604 55.392C272.908 56.928 271.792 58.128 270.256 58.992C268.744 59.856 266.968 60.288 264.928 60.288ZM293.218 45.24H286.666V60H281.086V45.24H274.534V40.632H293.218V45.24Z" fill="white"/>
<path d="M56.7778 48.5759C58.7403 46.6226 58.7572 43.4558 56.8157 41.5025L25.1773 9.67256C23.2358 7.71931 20.0711 7.71931 18.1086 9.67256C16.1462 11.6258 16.1292 14.7926 18.0707 16.7459L46.1937 45.0392L17.7672 73.3325C15.8047 75.2858 15.7877 78.4526 17.7292 80.4059C19.6707 82.3591 22.8355 82.3591 24.7979 80.4059L56.7778 48.5759ZM47.6157 50.0408L53.2356 50.0408L53.2893 40.0376L47.6693 40.0376L47.6157 50.0408Z" fill="#FFFCFC"/>
</svg>
